<svg width="6" height="6" viewBox="0 0 6 6" fill="none" xmlns="http://www.w3.org/2000/svg">
<path fill-rule="evenodd" clip-rule="evenodd" d="M5.37348 2.33275C5.58514 2.15167 5.61451 1.82717 5.404 1.64569C4.30373 0.697162 2.65691 0.665478 1.51665 1.64101C0.246664 2.72752 0.0859693 4.65202 1.15772 5.93949C1.16243 5.94514 1.16715 5.95077 1.17188 5.95637V5.95637C1.16409 5.94701 1.16528 5.93301 1.17453 5.92509L1.54101 5.61156C1.75266 5.43048 1.77265 5.11167 1.6519 4.85968C1.26045 4.04278 1.44756 3.03067 2.16356 2.4181C2.87956 1.80554 3.89516 1.78868 4.6237 2.31718C4.84844 2.48022 5.16182 2.51383 5.37348 2.33275V2.33275Z" fill="#D9D9D9"/>
</svg>
